<?xml version="1.0" standalone="no"?>
<!DOCTYPE svg PUBLIC "-//W3C//DTD SVG 20010904//EN"
 "http://www.w3.org/TR/2001/REC-SVG-20010904/DTD/svg10.dtd">
<svg version="1.0" xmlns="http://www.w3.org/2000/svg"
 width="500.000000pt" height="500.000000pt" viewBox="0 0 500.000000 500.000000"
 preserveAspectRatio="xMidYMid meet">
<metadata>
Created by potrace 1.14, written by Peter Selinger 2001-2017
</metadata>
<g transform="translate(0.000000,500.000000) scale(0.100000,-0.100000)"
fill="#000000" stroke="none">
<path d="M2345 4503 c-584 -28 -1039 -341 -1213 -835 -50 -141 -72 -277 -72
-447 l0 -149 26 -6 c37 -10 352 -34 540 -42 l162 -7 11 74 c36 226 127 407
247 490 78 54 145 71 274 72 162 1 263 -31 352 -111 110 -99 116 -267 14 -366
-24 -22 -93 -68 -155 -100 -322 -170 -493 -346 -576 -591 -68 -203 -82 -564
-38 -987 l6 -58 324 0 323 0 9 23 c5 12 25 105 46 207 36 180 90 385 118 452
54 124 173 208 498 351 81 36 178 85 215 109 185 120 316 294 380 503 25 82
28 104 28 250 0 133 -4 173 -22 238 -68 248 -245 500 -452 646 -272 191 -677
301 -1045 284z"/>
<path d="M2190 1266 c-124 -27 -234 -110 -291 -221 -29 -55 -32 -68 -21 -85
21 -34 15 -84 -10 -95 -21 -9 -23 -16 -23 -100 0 -82 3 -97 33 -157 59 -121
159 -205 280 -238 70 -18 208 -14 284 10 168 52 285 206 296 390 11 198 -86
374 -251 455 -109 53 -190 65 -297 41z"/>
</g>
</svg>
